<svg width="18" height="17" viewBox="0 0 18 17" fill="none" xmlns="http://www.w3.org/2000/svg">
<path d="M8.16666 4.33332H9.83332V5.99999H8.16666V4.33332ZM8.16666 7.66666H9.83332V12.6667H8.16666V7.66666ZM8.99999 0.166656C4.39999 0.166656 0.666656 3.89999 0.666656 8.49999C0.666656 13.1 4.39999 16.8333 8.99999 16.8333C13.6 16.8333 17.3333 13.1 17.3333 8.49999C17.3333 3.89999 13.6 0.166656 8.99999 0.166656ZM8.99999 15.1667C5.32499 15.1667 2.33332 12.175 2.33332 8.49999C2.33332 4.82499 5.32499 1.83332 8.99999 1.83332C12.675 1.83332 15.6667 4.82499 15.6667 8.49999C15.6667 12.175 12.675 15.1667 8.99999 15.1667Z" fill="#19943C"/>
</svg>
