<svg width="55" height="55" viewBox="0 0 55 55" fill="none" xmlns="http://www.w3.org/2000/svg">
<g clip-path="url(#clip0_3141_37827)">
<path opacity="0.3" d="M27.5003 9.16699C17.3941 9.16699 9.16699 17.3941 9.16699 27.5003C9.16699 37.6066 17.3941 45.8337 27.5003 45.8337C37.6066 45.8337 45.8337 37.6066 45.8337 27.5003C45.8337 17.3941 37.6066 9.16699 27.5003 9.16699ZM22.917 38.9587L13.7503 29.792L16.9816 26.5607L22.917 32.4732L38.0191 17.3712L41.2503 20.6253L22.917 38.9587Z" fill="#578300"/>
<path d="M27.4997 4.58301C14.8497 4.58301 4.58301 14.8497 4.58301 27.4997C4.58301 40.1497 14.8497 50.4163 27.4997 50.4163C40.1497 50.4163 50.4163 40.1497 50.4163 27.4997C50.4163 14.8497 40.1497 4.58301 27.4997 4.58301ZM27.4997 45.833C17.3934 45.833 9.16634 37.6059 9.16634 27.4997C9.16634 17.3934 17.3934 9.16634 27.4997 9.16634C37.6059 9.16634 45.833 17.3934 45.833 27.4997C45.833 37.6059 37.6059 45.833 27.4997 45.833ZM38.0184 17.3705L22.9163 32.4726L16.9809 26.5601L13.7497 29.7913L22.9163 38.958L41.2497 20.6247L38.0184 17.3705Z" fill="#578300"/>
</g>
<defs>
<clipPath id="clip0_3141_37827">
<rect width="55" height="55" fill="white"/>
</clipPath>
</defs>
</svg>
