<svg width="21" height="32" viewBox="0 0 21 32" fill="none" xmlns="http://www.w3.org/2000/svg">
<path d="M20.0603 4.88219L17.3334 2.347C17.0669 2.09992 16.7345 1.93669 16.3736 1.87829L4.641 0.0334248C4.13036 -0.0474379 3.82488 0.585987 4.20673 0.939387L12.0849 8.27543C12.2451 8.42518 12.3364 8.63482 12.3364 8.85644L12.3319 20.0155C12.3319 20.4992 12.9234 20.7268 13.2424 20.3689L19.8372 13.0119C20.1412 12.675 20.3074 12.2347 20.3074 11.7795L20.3134 6.10262V5.4662C20.3134 5.24308 20.222 5.03194 20.0603 4.88219Z" fill="#578300"/>
<path d="M0.800061 22.6728L0.850974 2.47958C0.852472 2.01088 1.41552 1.77727 1.74346 2.10821L9.51077 9.93093C9.65902 10.0792 9.74138 10.2813 9.73988 10.491L9.68897 30.9028C9.68747 31.3715 9.12443 31.6051 8.79648 31.2742L1.18341 23.6072C0.93633 23.3601 0.798563 23.0232 0.800061 22.6728Z" fill="#578300"/>
</svg>
