<svg width="20" height="20" viewBox="0 0 20 20" fill="none" xmlns="http://www.w3.org/2000/svg">
<g clip-path="url(#clip0_3149_59941)">
<path opacity="0.3" d="M10.0002 3.33301C6.32516 3.33301 3.3335 6.32467 3.3335 9.99967C3.3335 13.6747 6.32516 16.6663 10.0002 16.6663C13.6752 16.6663 16.6668 13.6747 16.6668 9.99967C16.6668 6.32467 13.6752 3.33301 10.0002 3.33301ZM11.5668 9.61634L7.4335 13.7497L6.2585 12.5747L10.3918 8.44134L8.61683 6.66634L13.3252 6.67467L13.3335 11.383L11.5668 9.61634Z" fill="white"/>
<path d="M9.99984 3.33366C13.6748 3.33366 16.6665 6.32533 16.6665 10.0003C16.6665 13.6753 13.6748 16.667 9.99984 16.667C6.32484 16.667 3.33317 13.6753 3.33317 10.0003C3.33317 6.32533 6.32484 3.33366 9.99984 3.33366ZM9.99984 1.66699C5.39984 1.66699 1.6665 5.40033 1.6665 10.0003C1.6665 14.6003 5.39984 18.3337 9.99984 18.3337C14.5998 18.3337 18.3332 14.6003 18.3332 10.0003C18.3332 5.40033 14.5998 1.66699 9.99984 1.66699ZM11.5665 9.61699L7.43317 13.7503L6.25817 12.5753L10.3915 8.44199L8.6165 6.66699L13.3248 6.67533L13.3332 11.3837L11.5665 9.61699Z" fill="white"/>
</g>
<defs>
<clipPath id="clip0_3149_59941">
<rect width="20" height="20" fill="white"/>
</clipPath>
</defs>
</svg>
