<svg width="24" height="24" viewBox="0 0 24 24" fill="none" xmlns="http://www.w3.org/2000/svg">
<g clip-path="url(#clip0_2890_10763)">
<path opacity="0.3" d="M4 7.00001H20V3.98001L4 4.00001V7.00001Z" fill="currentColor"/>
<path opacity="0.3" d="M5 20H19V9H5V20ZM9 12H15V14H9V12Z" fill="currentColor"/>
<path d="M20 2H4C3 2 2 2.9 2 4V7.01C2 7.73 2.43 8.35 3 8.7V20C3 21.1 4.1 22 5 22H19C19.9 22 21 21.1 21 20V8.7C21.57 8.35 22 7.73 22 7.01V4C22 2.9 21 2 20 2ZM19 20H5V9H19V20ZM20 7H4V4L20 3.98V7Z" fill="currentColor"/>
<path d="M15 12H9V14H15V12Z" fill="currentColor"/>
</g>
<defs>
<clipPath id="clip0_2890_10763">
<rect width="24" height="24" fill="white"/>
</clipPath>
</defs>
</svg>
