<svg width="17" height="12" viewBox="0 0 17 12" fill="none" xmlns="http://www.w3.org/2000/svg">
<path opacity="0.3" d="M1.83203 6.83317V7.6665H5.16536V5.1665H3.4987C2.58203 5.1665 1.83203 5.9165 1.83203 6.83317Z" fill="currentColor"/>
<path d="M14.3327 1.83317C14.3327 0.916504 13.5827 0.166504 12.666 0.166504H10.166V1.83317H12.666V4.0415L9.76602 7.6665H6.83268V3.49984H3.49935C1.65768 3.49984 0.166016 4.9915 0.166016 6.83317V9.33317H1.83268C1.83268 10.7165 2.94935 11.8332 4.33268 11.8332C5.71602 11.8332 6.83268 10.7165 6.83268 9.33317H10.566L14.3327 4.62484V1.83317ZM4.33268 10.1665C3.87435 10.1665 3.49935 9.7915 3.49935 9.33317H5.16602C5.16602 9.7915 4.79102 10.1665 4.33268 10.1665ZM5.16602 7.6665H1.83268V6.83317C1.83268 5.9165 2.58268 5.1665 3.49935 5.1665H5.16602V7.6665Z" fill="currentColor"/>
<path d="M6.83268 1H2.66602V2.66667H6.83268V1Z" fill="currentColor"/>
<path d="M14.332 6.83301C12.9487 6.83301 11.832 7.94967 11.832 9.33301C11.832 10.7163 12.9487 11.833 14.332 11.833C15.7154 11.833 16.832 10.7163 16.832 9.33301C16.832 7.94967 15.7154 6.83301 14.332 6.83301ZM14.332 10.1663C13.8737 10.1663 13.4987 9.79134 13.4987 9.33301C13.4987 8.87467 13.8737 8.49967 14.332 8.49967C14.7904 8.49967 15.1654 8.87467 15.1654 9.33301C15.1654 9.79134 14.7904 10.1663 14.332 10.1663Z" fill="currentColor"/>
</svg>
