<svg width="20" height="14" viewBox="0 0 20 14" fill="none" xmlns="http://www.w3.org/2000/svg">
<path d="M12.4997 7C14.3413 7 15.833 5.50834 15.833 3.66667C15.833 1.825 14.3413 0.333336 12.4997 0.333336C10.658 0.333336 9.16634 1.825 9.16634 3.66667C9.16634 5.50834 10.658 7 12.4997 7ZM12.4997 2C13.4163 2 14.1663 2.75 14.1663 3.66667C14.1663 4.58334 13.4163 5.33334 12.4997 5.33334C11.583 5.33334 10.833 4.58334 10.833 3.66667C10.833 2.75 11.583 2 12.4997 2ZM12.4997 8.66667C10.2747 8.66667 5.83301 9.78334 5.83301 12V13.6667H19.1663V12C19.1663 9.78334 14.7247 8.66667 12.4997 8.66667ZM7.49967 12C7.68301 11.4 10.258 10.3333 12.4997 10.3333C14.7497 10.3333 17.333 11.4083 17.4997 12H7.49967ZM4.99967 9.5V7H7.49967V5.33334H4.99967V2.83334H3.33301V5.33334H0.833008V7H3.33301V9.5H4.99967Z" fill="white"/>
</svg>
