<svg width="25" height="24" viewBox="0 0 25 24" fill="none" xmlns="http://www.w3.org/2000/svg">
<g clip-path="url(#clip0_2937_3834)">
<path d="M20.71 8.57L19.48 10.42C20.0732 11.6031 20.3636 12.9148 20.3252 14.2377C20.2868 15.5606 19.9208 16.8533 19.26 18H5.40001C4.54117 16.5101 4.1853 14.7831 4.38515 13.0751C4.58499 11.367 5.32992 9.76882 6.50949 8.51743C7.68905 7.26603 9.24047 6.42804 10.9337 6.1277C12.627 5.82735 14.372 6.08063 15.91 6.85L17.76 5.62C15.8765 4.41222 13.6423 3.871 11.4149 4.08294C9.18746 4.29487 7.09545 5.2477 5.4735 6.78901C3.85155 8.33033 2.79337 10.3711 2.46822 12.5848C2.14308 14.7986 2.56976 17.0574 3.68001 19C3.85452 19.3023 4.1051 19.5536 4.40684 19.7291C4.70858 19.9045 5.05098 19.9979 5.40001 20H19.25C19.6024 20.0014 19.949 19.9096 20.2545 19.734C20.5601 19.5584 20.8138 19.3052 20.99 19C21.9114 17.4039 22.3738 15.5843 22.3261 13.742C22.2785 11.8996 21.7227 10.1063 20.72 8.56L20.71 8.57Z" fill="#A857F9"/>
<path d="M10.9199 15.41C11.1057 15.596 11.3263 15.7435 11.5691 15.8442C11.8119 15.9448 12.0721 15.9966 12.3349 15.9966C12.5978 15.9966 12.858 15.9448 13.1008 15.8442C13.3436 15.7435 13.5642 15.596 13.7499 15.41L19.4099 6.92004L10.9199 12.58C10.734 12.7658 10.5865 12.9864 10.4858 13.2292C10.3852 13.472 10.3334 13.7322 10.3334 13.995C10.3334 14.2579 10.3852 14.5181 10.4858 14.7609C10.5865 15.0037 10.734 15.2243 10.9199 15.41Z" fill="#A857F9"/>
</g>
<defs>
<clipPath id="clip0_2937_3834">
<rect width="24" height="24" fill="white" transform="translate(0.329956)"/>
</clipPath>
</defs>
</svg>
