<svg width="498" height="551" viewBox="0 0 498 551" fill="none" xmlns="http://www.w3.org/2000/svg">
<path d="M490.653 123.701L421.186 59.1176C414.396 52.8233 405.927 48.6652 396.734 47.1775L97.8484 0.179791C84.8401 -1.88017 77.058 14.2562 86.7856 23.259L287.479 210.143C291.561 213.958 293.888 219.299 293.888 224.945L293.774 509.22C293.774 521.541 308.842 527.34 316.967 518.222L484.969 330.804C492.713 322.221 496.947 311.005 496.947 299.408L497.1 154.791V138.579C497.1 132.895 494.773 127.516 490.653 123.701Z" fill="#B2DBBE"/>
<path d="M0.000307759 576.93L1.29732 62.5115C1.33547 50.5713 15.6789 44.6203 24.0332 53.0509L221.904 252.333C225.681 256.11 227.779 261.26 227.741 266.6L226.444 786.589C226.405 798.529 212.062 804.48 203.708 796.049L9.76606 600.734C3.47173 594.44 -0.0378397 585.857 0.000307759 576.93Z" fill="#B2DBBE"/>
</svg>
