<svg width="208" height="56" viewBox="0 0 208 56" fill="none" xmlns="http://www.w3.org/2000/svg">
<path d="M33.2008 8.41488L28.5002 4.04472C28.0408 3.6188 27.4677 3.33744 26.8456 3.23677L6.62107 0.0565995C5.74085 -0.0827912 5.21426 1.0091 5.87249 1.61829L19.4528 14.2641C19.729 14.5222 19.8864 14.8836 19.8864 15.2657L19.8787 34.5016C19.8787 35.3353 20.8983 35.7277 21.4481 35.1108L32.8162 22.4288C33.3402 21.848 33.6267 21.0891 33.6267 20.3044L33.637 10.5186V9.42158C33.637 9.03697 33.4796 8.67301 33.2008 8.41488Z" fill="#19943C"/>
<path d="M2.0825e-05 39.0831L0.0877853 4.2742C0.0903666 3.46625 1.06094 3.06357 1.62624 3.63404L15.0155 17.1188C15.271 17.3743 15.413 17.7228 15.4104 18.0842L15.3227 53.27C15.3201 54.078 14.3495 54.4806 13.7842 53.9102L0.660836 40.6939C0.23492 40.268 -0.00256048 39.6872 2.0825e-05 39.0831Z" fill="#19943C"/>
<path d="M42.7078 36.1129V9.10986H52.5555C54.8709 9.10986 56.8791 9.49706 58.5776 10.2715C60.2761 11.0458 61.5849 12.1429 62.5012 13.5652C63.4202 14.9875 63.8796 16.6757 63.8796 18.6323C63.8796 20.5889 63.4202 22.2849 62.5012 23.7175C61.5823 25.1527 60.2839 26.2601 58.6035 27.0396C56.923 27.8192 54.938 28.209 52.6458 28.209H49.8373V36.1129H42.7078ZM49.8373 21.9983H51.8533C53.3892 21.9983 54.5637 21.7092 55.3717 21.1336C56.1822 20.558 56.5875 19.7242 56.5875 18.6323C56.5875 17.5637 56.1822 16.7454 55.3717 16.1749C54.5611 15.6044 53.3892 15.3205 51.8533 15.3205H49.8373V21.9983Z" fill="#19943C"/>
<path d="M81.3035 35.9476H75.6711L75.3561 34.0091C74.716 34.7499 73.9442 35.3178 73.0355 35.7102C72.1295 36.1051 71.1409 36.3013 70.0696 36.3013C68.8719 36.3013 67.8084 36.069 66.8791 35.6043C65.9498 35.1397 65.2168 34.4995 64.6824 33.6813C64.1481 32.8656 63.8796 31.9337 63.8796 30.8857C63.8796 29.7809 64.1713 28.8103 64.7521 27.9766C65.3329 27.1428 66.1383 26.4871 67.1682 26.0096C68.1982 25.5346 69.3752 25.2946 70.6995 25.2946C71.4196 25.2946 72.1295 25.3694 72.8265 25.514C73.5234 25.6611 74.2049 25.8754 74.8683 26.1567V25.8754C74.8683 25.3359 74.6953 24.8583 74.3546 24.4479C74.0113 24.0375 73.5337 23.7122 72.9245 23.4773C72.3154 23.2424 71.6184 23.1237 70.8414 23.1237C70.0515 23.1237 69.2849 23.2424 68.5466 23.4773C67.8084 23.7122 67.1476 24.0478 66.5668 24.4815L64.9276 19.7035C66.2054 19.1278 67.4728 18.6916 68.7299 18.3999C69.9844 18.1056 71.1899 17.9585 72.3412 17.9585C74.1662 17.9585 75.7511 18.3147 77.0934 19.0246C78.4356 19.737 79.4733 20.7411 80.2064 22.0395C80.9395 23.3379 81.3061 24.8687 81.3061 26.6317V35.9476H81.3035ZM71.5539 31.5568C72.0779 31.5568 72.5916 31.4407 73.0975 31.2032C73.6034 30.9683 74.019 30.6689 74.3443 30.3049C74.6695 29.9409 74.8321 29.5692 74.8321 29.1949V29.1769C74.414 28.9291 73.9493 28.738 73.4356 28.6038C72.9245 28.4696 72.4134 28.3999 71.8998 28.3999C71.1667 28.3999 70.5885 28.5393 70.1651 28.8155C69.7418 29.0917 69.5275 29.4711 69.5275 29.9538C69.5275 30.2584 69.6153 30.5346 69.7883 30.7824C69.9638 31.0302 70.2038 31.2213 70.511 31.3555C70.8259 31.4897 71.1718 31.5568 71.5539 31.5568Z" fill="#19943C"/>
<path d="M92.86 45.1139H85.8389L89.5482 36.1671L80.1316 18.1108H87.6922L92.6793 28.6245L97.0366 18.1108H104.058L92.86 45.1139Z" fill="#19943C"/>
<path d="M113.443 36.1129H106.314V9.10986H113.443V36.1129Z" fill="#19943C"/>
<path d="M134.318 36.1023H127.757V27.4368C127.757 26.2391 127.53 25.315 127.073 24.6671C126.616 24.0192 125.968 23.6965 125.126 23.6965C124.262 23.6965 123.59 24.0243 123.118 24.6774C122.643 25.3305 122.406 26.2494 122.406 27.4368V36.1023H115.844V18.126H121.038L121.252 20.9835C121.879 19.9278 122.7 19.1302 123.714 18.5829C124.729 18.0383 125.916 17.7646 127.279 17.7646C129.484 17.7646 131.211 18.4564 132.455 19.84C133.699 21.2236 134.321 23.1518 134.321 25.6196V36.1023H134.318Z" fill="#19943C"/>
<path d="M155.601 17.7935L148.147 36.4305H141.492L134.037 17.7935H141.381L144.83 29.572L148.278 17.7935H155.601Z" fill="#19943C"/>
<path d="M188.492 17.8637C188.066 17.7966 187.646 17.7656 187.23 17.7656C186.009 17.7656 184.925 18.0444 183.975 18.602C183.028 19.1569 182.256 19.9417 181.665 20.9458L181.45 18.1244H175.761V36.1007H182.323V28.1373C182.323 27.2235 182.496 26.4414 182.839 25.7806C183.182 25.1224 183.67 24.6087 184.305 24.2447C184.94 23.8807 185.689 23.6975 186.556 23.6975C187.302 23.6975 188.11 23.842 188.972 24.126L188.975 24.1053V17.9541C188.812 17.9179 188.652 17.8869 188.492 17.8637Z" fill="#19943C"/>
<path d="M206.504 35.6094C204.992 36.185 203.533 36.4741 202.129 36.4741C200.604 36.4741 199.261 36.1566 198.097 35.519C196.933 34.884 196.024 33.9986 195.369 32.8629C194.716 31.7297 194.388 30.4184 194.388 28.929V24.0322H191.236V18.1107H194.747V13.6089H201.03V18.1107H205.764V24.0348H201.032V27.7261C201.032 28.6502 201.29 29.3497 201.807 29.8247C202.323 30.2996 202.929 30.5345 203.624 30.5345C204.331 30.5345 205.015 30.3074 205.676 29.8505L206.504 35.6094Z" fill="#19943C"/>
<path d="M155.89 27.0939C155.89 21.6086 160.364 18.2349 164.951 18.2349C170.503 18.2349 173.203 21.779 173.203 26.3789C173.203 27.334 173.087 28.2194 172.971 28.6969H161.672C162.212 30.9788 164.024 31.9674 166.453 31.9674C167.842 31.9674 169.23 31.5931 170.578 30.9117L172.506 34.0815C170.5 35.3412 167.88 35.9891 165.604 35.9891C160.131 35.9865 155.89 32.7496 155.89 27.0939ZM168.113 25.1502C168.113 23.4801 167.263 22.2204 165.105 22.2204C163.409 22.2204 161.982 23.1755 161.597 25.1502H168.113Z" fill="#19943C"/>
<path d="M165.606 36.2779C159.62 36.2779 155.601 32.5866 155.601 27.0936C155.601 21.3657 160.356 17.9429 164.951 17.9429C170.219 17.9429 173.492 21.1747 173.492 26.3786C173.492 27.4111 173.363 28.3094 173.252 28.7663L173.198 28.9883H162.054C162.764 31.1979 164.816 31.6754 166.455 31.6754C167.759 31.6754 169.104 31.3295 170.451 30.6507L170.689 30.5319L172.906 34.1767L172.661 34.3316C170.717 35.5474 168.079 36.2779 165.606 36.2779ZM164.951 18.5262C160.637 18.5262 156.179 21.7297 156.179 27.0936C156.179 32.2382 159.969 35.6945 165.606 35.6945C167.873 35.6945 170.278 35.0569 172.109 33.9805L170.469 31.2882C169.119 31.931 167.769 32.2588 166.453 32.2588C163.722 32.2588 161.923 31.0172 161.391 28.7637L161.306 28.4023H172.738C172.831 27.9145 172.914 27.1633 172.914 26.3786C172.914 21.4612 169.938 18.5262 164.951 18.5262ZM168.402 25.4416H161.244L161.311 25.0931C161.698 23.1107 163.115 21.9258 165.103 21.9258C167.199 21.9258 168.399 23.1003 168.399 25.1473V25.4416H168.402ZM161.964 24.8582H167.816C167.738 23.7276 167.173 22.5118 165.108 22.5118C163.51 22.5118 162.382 23.361 161.964 24.8582Z" fill="#19943C"/>
</svg>
